:SAMPLES-PER-SECOND 30
:FULLY-SPECIFIED
:DEGREES
657
root  -16.5156 34.2772 -31.337 -170.034 55.4492 177.067
RightUpLeg  -6.80302 -5.02062 5.93291
RightLeg  9.05062 -3.87873 -0.362619
RightFoot  -7.70119 0.00866997 0.69606
RightToes  -10.8275 -0.0364348 -0.0993028
Spine  -0.102441 1.13353 -0.654833
Spine1  -0.291677 2.38613 -0.664415
HEad  -52.8461 -11.2621 6.45539
LeftShoulder1  -1.94126e-019 -3.10601e-018 -2.51263e-017
LeftArm  -13.973 29.2042 -80.5451
LeftForeArm  31.4364 -19.6465 -3.1121
LeftHand  -0.396953 -2.16493 6.29871
RightShoulder  -4.96962e-017 0 -2.36833e-017
RightArm  -18.5317 -18.9272 82.2101
RightForeArm  54.1506 15.7439 1.09742
RightHand  -0.480098 -0.3041 -10.9771
LeftUpLeg  -33.1129 9.60398 -0.316123
LeftLeg  64.2555 11.3588 19.233
LeftFoot  3.67607 -0.0491743 1.69386
LeftToes  -17.1468 1.34695e-006 1.12385e-007
658
root  -15.726 34.2312 -32.1728 -170.965 58.0401 175.779
RightUpLeg  -3.97558 -3.66584 4.43138
RightLeg  6.62189 -3.15193 -0.160303
RightFoot  -7.76075 0.00279528 0.604461
RightToes  -10.8584 -0.0365654 -0.0995756
Spine  -0.086046 1.77007 -1.10149
Spine1  -0.249405 3.71192 -1.54555
HEad  -53.4463 -11.1246 5.39998
LeftShoulder1  -1.94126e-019 -3.10601e-018 -2.51263e-017
LeftArm  -17.7089 33.3633 -80.869
LeftForeArm  29.1727 -15.3194 -2.45334
LeftHand  -0.394173 -1.56197 6.75063
RightShoulder  -4.96962e-017 0 -2.36833e-017
RightArm  -12.8501 -18.5597 82.3033
RightForeArm  52.8235 19.7826 1.64093
RightHand  -0.451603 -0.245048 -10.2137
LeftUpLeg  -35.8399 8.2147 0.051308
LeftLeg  58.7385 13.2749 18.1805
LeftFoot  2.92882 -0.0319861 1.41274
LeftToes  -16.7923 1.34695e-006 1.12385e-007
659
root  -14.895 34.024 -33.0455 -171.709 59.7228 174.861
RightUpLeg  -2.39742 -2.99727 3.22469
RightLeg  7.04552 -2.57284 -0.149761
RightFoot  -9.21539 0.00224441 0.586549
RightToes  -11.8955 -0.0394576 -0.108687
Spine  -0.0720264 2.21131 -1.32656
Spine1  -0.186734 4.78162 -2.09438
HEad  -53.6041 -10.6782 4.00122
LeftShoulder1  -1.94126e-019 -3.10601e-018 -2.51263e-017
LeftArm  -20.7406 36.7739 -81.1362
LeftForeArm  29.951 -12.2337 -2.06186
LeftHand  -0.353403 -1.575 6.05793
RightShoulder  -4.96962e-017 0 -2.36833e-017
RightArm  -9.02865 -18.3312 81.7057
RightForeArm  52.6701 25.5531 2.76409
RightHand  -0.553117 0.58757 -10.8306
LeftUpLeg  -37.6968 5.90834 1.10154
LeftLeg  50.7194 13.4377 14.0023
LeftFoot  3.04663 -0.0307498 1.31785
LeftToes  -19.2204 1.34695e-006 1.12385e-007
660
root  -14.0198 33.7398 -33.9455 -171.917 60.3422 174.514
RightUpLeg  -1.30223 -1.9336 2.47441
RightLeg  8.73425 -3.26121 -0.286663
RightFoot  -11.5312 0.0265471 0.82415
RightToes  -12.3651 -0.043107 -0.112785
Spine  -0.130324 2.44801 -1.40646
Spine1  -0.256044 5.49391 -2.40741
HEad  -53.2163 -10.4499 2.74352
LeftShoulder1  -1.94126e-019 -3.10601e-018 -2.51263e-017
LeftArm  -21.9789 39.0844 -80.8824
LeftForeArm  31.9522 -9.52257 -1.67313
LeftHand  -0.322974 -1.64947 5.49655
RightShoulder  -4.96962e-017 0 -2.36833e-017
RightArm  -6.86443 -18.0109 80.8971
RightForeArm  53.0133 30.1121 3.70344
RightHand  -0.593257 0.811511 -11.2073
LeftUpLeg  -38.7857 1.73603 2.95939
LeftLeg  41.2933 11.0581 8.39915
LeftFoot  2.99181 -0.0221681 1.01044
LeftToes  -23.0441 1.34695e-006 1.12385e-007
661
root  -13.0792 33.4337 -34.9166 -172.938 60.7718 173.334
RightUpLeg  -0.688845 -0.837883 1.36278
RightLeg  11.8857 -4.27685 -0.614623
RightFoot  -14.3486 0.0851831 1.24288
RightToes  -13.0657 -0.0462668 -0.118868
Spine  -0.233381 2.65498 -1.67915
Spine1  -0.453444 6.08339 -3.06993
HEad  -52.23 -10.7663 2.03471
LeftShoulder1  -1.94126e-019 -3.10601e-018 -2.51263e-017
LeftArm  -22.8584 40.2956 -79.8493
LeftForeArm  34.6029 -6.45317 -1.12709
LeftHand  -0.283495 -1.65856 4.83798
RightShoulder  -4.96962e-017 0 -2.36833e-017
RightArm  -6.42508 -17.7188 80.4525
RightForeArm  52.5131 33.1158 4.40306
RightHand  -0.601003 0.748641 -11.4625
LeftUpLeg  -38.7177 -3.43252 4.48713
LeftLeg  32.4533 8.4513 4.60891
LeftFoot  2.76611 -0.0136869 0.72845
LeftToes  -26.5874 1.34695e-006 1.12385e-007
662
root  -12.0693 33.1686 -36.0651 -176.919 61.3367 169.514
RightUpLeg  -0.787027 -2.1948 -1.57639
RightLeg  18.0706 -3.54168 -0.908606
RightFoot  -16.8211 0.100644 1.2428
RightToes  -16.7401 -0.0640414 -0.150109
Spine  -0.232231 2.83965 -2.37981
Spine1  -0.538132 6.59594 -4.56286
HEad  -50.7549 -11.32 1.73388
LeftShoulder1  -1.94126e-019 -3.10601e-018 -2.51263e-017
LeftArm  -22.9913 40.6977 -78.0966
LeftForeArm  36.6859 -3.81978 -0.662232
LeftHand  -0.260318 -1.13265 4.76848
RightShoulder  -4.96962e-017 0 -2.36833e-017
RightArm  -7.50067 -17.4563 80.6532
RightForeArm  51.6899 34.2091 4.70132
RightHand  -0.605112 0.582255 -11.8466
LeftUpLeg  -36.7954 -7.5974 3.51329
LeftLeg  25.9415 6.63365 2.7033
LeftFoot  5.8357 -0.0428289 1.0018
LeftToes  -30.908 1.34695e-006 1.12385e-007
663
root  -11.0113 32.9033 -37.2945 179.703 61.9784 166.556
RightUpLeg  -2.42471 -5.42289 -4.83054
RightLeg  27.6615 -1.45799 -0.655897
RightFoot  -16.1384 0.0177818 0.677206
RightToes  -31.2522 -0.152638 -0.260574
Spine  -0.354184 2.85319 -2.84505
Spine1  -0.845928 6.70464 -5.52191
HEad  -49.0946 -11.4787 1.21358
LeftShoulder1  -1.94126e-019 -3.10601e-018 -2.51263e-017
LeftArm  -23.4662 41.049 -76.9999
LeftForeArm  37.5828 -2.1648 -0.370551
LeftHand  -0.271517 -0.463323 5.4739
RightShoulder  -4.96962e-017 0 -2.36833e-017
RightArm  -9.03254 -17.2217 80.5994
RightForeArm  50.9494 34.0711 4.71094
RightHand  -0.594473 0.342842 -12.1052
LeftUpLeg  -34.7529 -9.15047 1.33496
LeftLeg  27.3647 5.16228 2.25592
LeftFoot  7.73694 -0.061298 1.06802
LeftToes  -30.0588 1.34695e-006 1.12385e-007
664
root  -9.96423 32.816 -38.3892 176.929 61.4881 164.207
RightUpLeg  -6.12943 -10.2789 -7.98148
RightLeg  40.3275 -0.802669 -0.621879
RightFoot  -8.95478 -0.00435225 0.500639
RightToes  -56.0691 -0.35782 -0.386827
Spine  -0.366515 2.36774 -3.18516
Spine1  -0.907804 5.74836 -6.16175
HEad  -48.0532 -11.9619 1.00859
LeftShoulder1  -1.94126e-019 -3.10601e-018 -2.51263e-017
LeftArm  -24.2667 40.142 -76.2392
LeftForeArm  37.7759 -1.53013 -0.258304
LeftHand  -0.290264 0.25752 6.59588
RightShoulder  -4.96962e-017 0 -2.36833e-017
RightArm  -12.3898 -16.7754 81.0208
RightForeArm  51.9101 32.8743 4.39137
RightHand  -0.589637 0.0124334 -12.7109
LeftUpLeg  -33.7009 -10.3821 -1.05572
LeftLeg  31.3122 6.30201 3.28384
LeftFoot  4.79826 -0.0313121 0.908887
LeftToes  -28.3249 1.34695e-006 1.12385e-007
665
root  -8.93128 32.924 -39.3037 175.892 61.3441 163.522
RightUpLeg  -11.7256 -14.4213 -9.3241
RightLeg  53.3602 -2.29326 -2.75868
RightFoot  2.23277 0.00458971 0.265051
RightToes  -58.077 -0.376482 -0.39296
Spine  -0.230047 2.00864 -3.36516
Spine1  -0.64487 4.80718 -6.35801
HEad  -48.3988 -13.1457 1.17644
LeftShoulder1  -1.94126e-019 -3.10601e-018 -2.51263e-017
LeftArm  -25.153 37.9331 -75.4343
LeftForeArm  37.6927 -2.3138 -0.394268
LeftHand  -0.320214 0.600755 7.76507
RightShoulder  -4.96962e-017 0 -2.36833e-017
RightArm  -17.8087 -16.8516 81.8159
RightForeArm  52.3654 31.6079 4.08357
RightHand  -0.56805 -0.472077 -13.4072
LeftUpLeg  -30.9017 -8.76872 -2.82893
LeftLeg  31.3418 4.81226 2.51283
LeftFoot  1.87879 -0.00475031 0.451257
LeftToes  -26.419 1.34695e-006 1.12385e-007
666
root  -7.86554 33.1608 -40.0414 175.816 62.314 163.836
RightUpLeg  -18.2061 -17.4449 -8.5577
RightLeg  64.6619 -4.25715 -7.73738
RightFoot  6.22253 0.0614567 -0.563166
RightToes  -19.3371 -0.0777941 -0.171471
Spine  -0.0479069 1.79489 -3.33661
Spine1  -0.272901 4.1706 -6.16566
HEad  -48.6829 -13.4469 1.18074
LeftShoulder1  -1.94126e-019 -3.10601e-018 -2.51263e-017
LeftArm  -24.3334 35.2131 -74.8607
LeftForeArm  35.6204 -4.40718 -0.762364
LeftHand  -0.344681 0.516347 8.22598
RightShoulder  -4.96962e-017 0 -2.36833e-017
RightArm  -20.3152 -16.6128 82.1768
RightForeArm  49.9427 29.5313 3.73345
RightHand  -0.462482 -1.84317 -14.9763
LeftUpLeg  -27.4801 -6.79489 -3.37957
LeftLeg  29.8395 3.96356 1.93986
LeftFoot  0.0348185 -2.41477e-005 0.242286
LeftToes  -25.718 1.34695e-006 1.12385e-007
667
root  -6.73636 33.5073 -40.636 176.941 63.306 165.528
RightUpLeg  -23.5298 -19.2603 -6.00917
RightLeg  71.0242 -4.70468 -11.2879
RightFoot  1.54995 0.00657018 0.0437324
RightToes  -17.7998 -0.0695361 -0.158901
Spine  0.099361 1.37029 -3.00582
Spine1  0.0575695 3.16144 -5.40128
HEad  -48.2718 -12.7482 0.593309
LeftShoulder1  -1.94126e-019 -3.10601e-018 -2.51263e-017
LeftArm  -21.6535 31.9532 -74.3627
LeftForeArm  32.8952 -6.76005 -1.17869
LeftHand  -0.36185 0.356219 8.37794
RightShoulder  -4.96962e-017 0 -2.36833e-017
RightArm  -20.2541 -16.1206 81.954
RightForeArm  48.3276 26.7935 3.22414
RightHand  -0.38856 -2.47207 -15.1864
LeftUpLeg  -23.4592 -6.13649 -2.82456
LeftLeg  26.9877 4.32875 1.85833
LeftFoot  -0.523888 5.28106e-005 0.172996
LeftToes  -25.633 1.34695e-006 1.12385e-007
